<mxfile host="app.diagrams.net" modified="2023-10-22T21:32:30.833Z" agent="Mozilla/5.0 (Windows NT 10.0; Win64; x64) AppleWebKit/537.36 (KHTML, like Gecko) Chrome/116.0.0.0 Safari/537.36" etag="18E4-tek_lzzvpfOybQm" version="21.6.8" type="device">
  <diagram name="Pagina-1" id="92el_RK30aIjzpEeYm2v">
    <mxGraphModel dx="1456" dy="630" grid="1" gridSize="10" guides="1" tooltips="1" connect="1" arrows="1" fold="1" page="1" pageScale="1" pageWidth="1169" pageHeight="827" math="0" shadow="0">
      <root>
        <mxCell id="0" />
        <mxCell id="1" parent="0" />
        <mxCell id="JmH-t6Fp_r1iHyjIvHLw-88" value="" style="rounded=1;whiteSpace=wrap;html=1;" vertex="1" parent="1">
          <mxGeometry x="40" y="80" width="400" height="680" as="geometry" />
        </mxCell>
        <mxCell id="JmH-t6Fp_r1iHyjIvHLw-85" value="" style="rounded=1;whiteSpace=wrap;html=1;rotation=90;" vertex="1" parent="1">
          <mxGeometry x="420" y="220" width="680" height="400" as="geometry" />
        </mxCell>
        <mxCell id="JmH-t6Fp_r1iHyjIvHLw-84" value="" style="edgeStyle=orthogonalEdgeStyle;rounded=0;orthogonalLoop=1;jettySize=auto;html=1;" edge="1" parent="1" source="JmH-t6Fp_r1iHyjIvHLw-82" target="JmH-t6Fp_r1iHyjIvHLw-38">
          <mxGeometry relative="1" as="geometry" />
        </mxCell>
        <mxCell id="JmH-t6Fp_r1iHyjIvHLw-82" value="" style="rounded=1;whiteSpace=wrap;html=1;rotation=90;" vertex="1" parent="1">
          <mxGeometry x="584.38" y="343.13" width="351.25" height="275" as="geometry" />
        </mxCell>
        <mxCell id="JmH-t6Fp_r1iHyjIvHLw-8" value="" style="endArrow=classic;startArrow=classic;html=1;rounded=0;entryX=0;entryY=0.5;entryDx=0;entryDy=0;exitX=0.5;exitY=0;exitDx=0;exitDy=0;" edge="1" parent="1" target="JmH-t6Fp_r1iHyjIvHLw-89">
          <mxGeometry width="50" height="50" relative="1" as="geometry">
            <mxPoint x="960" y="420" as="sourcePoint" />
            <mxPoint x="1080" y="320" as="targetPoint" />
          </mxGeometry>
        </mxCell>
        <mxCell id="JmH-t6Fp_r1iHyjIvHLw-12" value="" style="endArrow=classic;startArrow=classic;html=1;rounded=0;entryX=0;entryY=0.5;entryDx=0;entryDy=0;exitX=0.5;exitY=0;exitDx=0;exitDy=0;" edge="1" parent="1" target="JmH-t6Fp_r1iHyjIvHLw-90">
          <mxGeometry width="50" height="50" relative="1" as="geometry">
            <mxPoint x="960" y="420" as="sourcePoint" />
            <mxPoint x="1080" y="520" as="targetPoint" />
          </mxGeometry>
        </mxCell>
        <mxCell id="JmH-t6Fp_r1iHyjIvHLw-13" value="&lt;b&gt;&lt;font style=&quot;font-size: 18px;&quot;&gt;UDP&lt;/font&gt;&lt;/b&gt;" style="text;html=1;strokeColor=none;fillColor=none;align=center;verticalAlign=middle;whiteSpace=wrap;rounded=0;" vertex="1" parent="1">
          <mxGeometry x="990" y="330" width="60" height="30" as="geometry" />
        </mxCell>
        <mxCell id="JmH-t6Fp_r1iHyjIvHLw-14" value="&lt;b&gt;&lt;font style=&quot;font-size: 18px;&quot;&gt;UDP&lt;/font&gt;&lt;/b&gt;" style="text;html=1;strokeColor=none;fillColor=none;align=center;verticalAlign=middle;whiteSpace=wrap;rounded=0;" vertex="1" parent="1">
          <mxGeometry x="990" y="480" width="60" height="30" as="geometry" />
        </mxCell>
        <mxCell id="JmH-t6Fp_r1iHyjIvHLw-20" value="" style="endArrow=classic;startArrow=classic;html=1;rounded=0;exitX=1.012;exitY=0.498;exitDx=0;exitDy=0;exitPerimeter=0;entryX=0.5;entryY=1;entryDx=0;entryDy=0;" edge="1" parent="1" source="JmH-t6Fp_r1iHyjIvHLw-88" target="JmH-t6Fp_r1iHyjIvHLw-85">
          <mxGeometry width="50" height="50" relative="1" as="geometry">
            <mxPoint x="470" y="460" as="sourcePoint" />
            <mxPoint x="550" y="420" as="targetPoint" />
          </mxGeometry>
        </mxCell>
        <mxCell id="JmH-t6Fp_r1iHyjIvHLw-21" value="&lt;b&gt;&lt;font style=&quot;font-size: 18px;&quot;&gt;TCP&lt;/font&gt;&lt;/b&gt;" style="text;html=1;strokeColor=none;fillColor=none;align=center;verticalAlign=middle;whiteSpace=wrap;rounded=0;" vertex="1" parent="1">
          <mxGeometry x="470" y="390" width="60" height="30" as="geometry" />
        </mxCell>
        <mxCell id="JmH-t6Fp_r1iHyjIvHLw-22" value="&lt;font style=&quot;font-size: 18px;&quot;&gt;&lt;b&gt;NMBS&lt;/b&gt;&lt;/font&gt;" style="text;html=1;strokeColor=none;fillColor=none;align=center;verticalAlign=middle;whiteSpace=wrap;rounded=0;" vertex="1" parent="1">
          <mxGeometry x="210" y="50" width="60" height="30" as="geometry" />
        </mxCell>
        <mxCell id="JmH-t6Fp_r1iHyjIvHLw-23" value="&lt;font style=&quot;font-size: 18px;&quot;&gt;&lt;b&gt;Infrabel&lt;/b&gt;&lt;/font&gt;" style="text;html=1;strokeColor=none;fillColor=none;align=center;verticalAlign=middle;whiteSpace=wrap;rounded=0;" vertex="1" parent="1">
          <mxGeometry x="730" y="50" width="60" height="30" as="geometry" />
        </mxCell>
        <mxCell id="JmH-t6Fp_r1iHyjIvHLw-24" value="&lt;b&gt;&lt;font style=&quot;font-size: 18px;&quot;&gt;adt-tcp-communication.rkt&lt;/font&gt;&lt;/b&gt;" style="rounded=0;whiteSpace=wrap;html=1;rotation=90;" vertex="1" parent="1">
          <mxGeometry x="290" y="400" width="240" height="40" as="geometry" />
        </mxCell>
        <mxCell id="JmH-t6Fp_r1iHyjIvHLw-25" value="&lt;b&gt;&lt;font style=&quot;font-size: 18px;&quot;&gt;adt-tcp-communication.rkt&lt;br&gt;&lt;/font&gt;&lt;/b&gt;" style="rounded=0;whiteSpace=wrap;html=1;rotation=90;" vertex="1" parent="1">
          <mxGeometry x="470" y="400" width="240" height="40" as="geometry" />
        </mxCell>
        <mxCell id="JmH-t6Fp_r1iHyjIvHLw-28" value="&lt;font style=&quot;font-size: 18px;&quot;&gt;&lt;b&gt;adt-gui.rkt&lt;br&gt;&lt;/b&gt;&lt;/font&gt;" style="rounded=0;whiteSpace=wrap;html=1;rotation=90;" vertex="1" parent="1">
          <mxGeometry x="10" y="400" width="120" height="40" as="geometry" />
        </mxCell>
        <mxCell id="JmH-t6Fp_r1iHyjIvHLw-29" value="&lt;font style=&quot;font-size: 18px;&quot;&gt;&lt;b&gt;adt-graphics.rkt&lt;/b&gt;&lt;/font&gt;" style="rounded=0;whiteSpace=wrap;html=1;rotation=90;" vertex="1" parent="1">
          <mxGeometry x="-5" y="615" width="150" height="40" as="geometry" />
        </mxCell>
        <mxCell id="JmH-t6Fp_r1iHyjIvHLw-30" value="" style="endArrow=classic;html=1;rounded=0;exitX=1;exitY=0.5;exitDx=0;exitDy=0;entryX=0;entryY=0.5;entryDx=0;entryDy=0;" edge="1" parent="1" source="JmH-t6Fp_r1iHyjIvHLw-28" target="JmH-t6Fp_r1iHyjIvHLw-29">
          <mxGeometry width="50" height="50" relative="1" as="geometry">
            <mxPoint x="80" y="550" as="sourcePoint" />
            <mxPoint x="-112.85714285714286" y="580" as="targetPoint" />
          </mxGeometry>
        </mxCell>
        <mxCell id="JmH-t6Fp_r1iHyjIvHLw-31" value="&lt;b&gt;&lt;font style=&quot;font-size: 18px;&quot;&gt;object-nmbs.rkt&lt;/font&gt;&lt;/b&gt;" style="rounded=0;whiteSpace=wrap;html=1;" vertex="1" parent="1">
          <mxGeometry x="160" y="90" width="160" height="40" as="geometry" />
        </mxCell>
        <mxCell id="JmH-t6Fp_r1iHyjIvHLw-32" value="&lt;b&gt;&lt;font style=&quot;font-size: 18px;&quot;&gt;adt-udp-communication.rkt&lt;/font&gt;&lt;/b&gt;" style="rounded=0;whiteSpace=wrap;html=1;rotation=90;" vertex="1" parent="1">
          <mxGeometry x="810" y="400" width="240" height="40" as="geometry" />
        </mxCell>
        <mxCell id="JmH-t6Fp_r1iHyjIvHLw-33" value="&lt;font style=&quot;font-size: 18px;&quot;&gt;&lt;b&gt;object-infrabel.rkt&lt;/b&gt;&lt;/font&gt;" style="rounded=0;whiteSpace=wrap;html=1;" vertex="1" parent="1">
          <mxGeometry x="670" y="90" width="180" height="40" as="geometry" />
        </mxCell>
        <mxCell id="JmH-t6Fp_r1iHyjIvHLw-34" value="&lt;b&gt;&lt;font style=&quot;font-size: 18px;&quot;&gt;adt-train.rkt&lt;/font&gt;&lt;/b&gt;" style="rounded=0;whiteSpace=wrap;html=1;" vertex="1" parent="1">
          <mxGeometry x="110" y="615" width="120" height="40" as="geometry" />
        </mxCell>
        <mxCell id="JmH-t6Fp_r1iHyjIvHLw-36" value="&lt;font style=&quot;font-size: 18px;&quot;&gt;&lt;b&gt;object-station.rkt&lt;/b&gt;&lt;/font&gt;" style="rounded=0;whiteSpace=wrap;html=1;" vertex="1" parent="1">
          <mxGeometry x="250" y="615" width="160" height="40" as="geometry" />
        </mxCell>
        <mxCell id="JmH-t6Fp_r1iHyjIvHLw-37" value="&lt;b&gt;&lt;font style=&quot;font-size: 18px;&quot;&gt;object-route.rkt&lt;/font&gt;&lt;/b&gt;" style="rounded=0;whiteSpace=wrap;html=1;" vertex="1" parent="1">
          <mxGeometry x="170" y="530" width="150" height="40" as="geometry" />
        </mxCell>
        <mxCell id="JmH-t6Fp_r1iHyjIvHLw-38" value="&lt;font style=&quot;font-size: 18px;&quot;&gt;&lt;b&gt;adt-positie.rkt&lt;/b&gt;&lt;/font&gt;" style="rounded=0;whiteSpace=wrap;html=1;" vertex="1" parent="1">
          <mxGeometry x="685" y="700" width="150" height="40" as="geometry" />
        </mxCell>
        <mxCell id="JmH-t6Fp_r1iHyjIvHLw-39" value="&lt;font style=&quot;font-size: 18px;&quot;&gt;&lt;b&gt;adt-train.rkt&lt;/b&gt;&lt;/font&gt;" style="rounded=0;whiteSpace=wrap;html=1;" vertex="1" parent="1">
          <mxGeometry x="697.5" y="420" width="125" height="40" as="geometry" />
        </mxCell>
        <mxCell id="JmH-t6Fp_r1iHyjIvHLw-40" value="&lt;font style=&quot;font-size: 18px;&quot;&gt;&lt;b&gt;adt-switch.rkt&lt;/b&gt;&lt;/font&gt;" style="rounded=0;whiteSpace=wrap;html=1;" vertex="1" parent="1">
          <mxGeometry x="690" y="483" width="140" height="40" as="geometry" />
        </mxCell>
        <mxCell id="JmH-t6Fp_r1iHyjIvHLw-42" value="&lt;font style=&quot;font-size: 18px;&quot;&gt;&lt;b&gt;adt-sign.rkt&lt;/b&gt;&lt;/font&gt;" style="rounded=0;whiteSpace=wrap;html=1;" vertex="1" parent="1">
          <mxGeometry x="702.5" y="372.5" width="115" height="40" as="geometry" />
        </mxCell>
        <mxCell id="JmH-t6Fp_r1iHyjIvHLw-43" value="&lt;font style=&quot;font-size: 18px;&quot;&gt;&lt;b&gt;adt-barrier.rkt&lt;/b&gt;&lt;/font&gt;" style="rounded=0;whiteSpace=wrap;html=1;" vertex="1" parent="1">
          <mxGeometry x="692.5" y="325" width="135" height="40" as="geometry" />
        </mxCell>
        <mxCell id="JmH-t6Fp_r1iHyjIvHLw-47" value="&lt;font style=&quot;font-size: 18px;&quot;&gt;&lt;b&gt;adt-detectionblock.rkt&lt;/b&gt;&lt;/font&gt;" style="rounded=0;whiteSpace=wrap;html=1;" vertex="1" parent="1">
          <mxGeometry x="655" y="530" width="210" height="40" as="geometry" />
        </mxCell>
        <mxCell id="JmH-t6Fp_r1iHyjIvHLw-49" value="" style="endArrow=classic;html=1;rounded=0;entryX=0.5;entryY=0;entryDx=0;entryDy=0;" edge="1" parent="1" source="JmH-t6Fp_r1iHyjIvHLw-82" target="JmH-t6Fp_r1iHyjIvHLw-38">
          <mxGeometry width="50" height="50" relative="1" as="geometry">
            <mxPoint x="760" y="660" as="sourcePoint" />
            <mxPoint x="800" y="660" as="targetPoint" />
          </mxGeometry>
        </mxCell>
        <mxCell id="JmH-t6Fp_r1iHyjIvHLw-51" value="" style="endArrow=classic;startArrow=classic;html=1;rounded=0;entryX=0;entryY=0.5;entryDx=0;entryDy=0;exitX=1;exitY=0.5;exitDx=0;exitDy=0;" edge="1" parent="1" source="JmH-t6Fp_r1iHyjIvHLw-31" target="JmH-t6Fp_r1iHyjIvHLw-24">
          <mxGeometry width="50" height="50" relative="1" as="geometry">
            <mxPoint x="320" y="230" as="sourcePoint" />
            <mxPoint x="370" y="180" as="targetPoint" />
            <Array as="points">
              <mxPoint x="410" y="110" />
            </Array>
          </mxGeometry>
        </mxCell>
        <mxCell id="JmH-t6Fp_r1iHyjIvHLw-52" value="" style="endArrow=classic;startArrow=classic;html=1;rounded=0;entryX=0;entryY=0.5;entryDx=0;entryDy=0;exitX=0;exitY=0.5;exitDx=0;exitDy=0;" edge="1" parent="1" source="JmH-t6Fp_r1iHyjIvHLw-28" target="JmH-t6Fp_r1iHyjIvHLw-31">
          <mxGeometry width="50" height="50" relative="1" as="geometry">
            <mxPoint x="100" y="240" as="sourcePoint" />
            <mxPoint x="150" y="190" as="targetPoint" />
            <Array as="points">
              <mxPoint x="70" y="110" />
            </Array>
          </mxGeometry>
        </mxCell>
        <mxCell id="JmH-t6Fp_r1iHyjIvHLw-54" value="" style="endArrow=classic;startArrow=classic;html=1;rounded=0;exitX=0;exitY=0.5;exitDx=0;exitDy=0;entryX=1;entryY=0.5;entryDx=0;entryDy=0;" edge="1" parent="1" source="JmH-t6Fp_r1iHyjIvHLw-32" target="JmH-t6Fp_r1iHyjIvHLw-33">
          <mxGeometry width="50" height="50" relative="1" as="geometry">
            <mxPoint x="860" y="230" as="sourcePoint" />
            <mxPoint x="910" y="180" as="targetPoint" />
            <Array as="points">
              <mxPoint x="930" y="110" />
            </Array>
          </mxGeometry>
        </mxCell>
        <mxCell id="JmH-t6Fp_r1iHyjIvHLw-56" value="&lt;font style=&quot;font-size: 18px;&quot;&gt;&lt;b&gt;adt-rail.rkt&lt;/b&gt;&lt;/font&gt;" style="rounded=0;whiteSpace=wrap;html=1;" vertex="1" parent="1">
          <mxGeometry x="705" y="600" width="110" height="40" as="geometry" />
        </mxCell>
        <mxCell id="JmH-t6Fp_r1iHyjIvHLw-61" value="" style="endArrow=classic;startArrow=classic;html=1;rounded=0;entryX=0.5;entryY=1;entryDx=0;entryDy=0;exitX=0;exitY=0.5;exitDx=0;exitDy=0;" edge="1" parent="1" source="JmH-t6Fp_r1iHyjIvHLw-56" target="JmH-t6Fp_r1iHyjIvHLw-33">
          <mxGeometry width="50" height="50" relative="1" as="geometry">
            <mxPoint x="510" y="610" as="sourcePoint" />
            <mxPoint x="540" y="250" as="targetPoint" />
            <Array as="points">
              <mxPoint x="640" y="620" />
              <mxPoint x="640" y="200" />
              <mxPoint x="760" y="200" />
            </Array>
          </mxGeometry>
        </mxCell>
        <mxCell id="JmH-t6Fp_r1iHyjIvHLw-62" value="" style="endArrow=classic;html=1;rounded=0;entryX=0;entryY=0.5;entryDx=0;entryDy=0;" edge="1" parent="1" target="JmH-t6Fp_r1iHyjIvHLw-39">
          <mxGeometry width="50" height="50" relative="1" as="geometry">
            <mxPoint x="640" y="440" as="sourcePoint" />
            <mxPoint x="720" y="440" as="targetPoint" />
          </mxGeometry>
        </mxCell>
        <mxCell id="JmH-t6Fp_r1iHyjIvHLw-63" value="" style="endArrow=classic;html=1;rounded=0;entryX=0;entryY=0.5;entryDx=0;entryDy=0;" edge="1" parent="1" target="JmH-t6Fp_r1iHyjIvHLw-42">
          <mxGeometry width="50" height="50" relative="1" as="geometry">
            <mxPoint x="640" y="392" as="sourcePoint" />
            <mxPoint x="690" y="400" as="targetPoint" />
          </mxGeometry>
        </mxCell>
        <mxCell id="JmH-t6Fp_r1iHyjIvHLw-64" value="" style="endArrow=classic;html=1;rounded=0;entryX=0;entryY=0.5;entryDx=0;entryDy=0;" edge="1" parent="1" target="JmH-t6Fp_r1iHyjIvHLw-43">
          <mxGeometry width="50" height="50" relative="1" as="geometry">
            <mxPoint x="640" y="345" as="sourcePoint" />
            <mxPoint x="700" y="370" as="targetPoint" />
          </mxGeometry>
        </mxCell>
        <mxCell id="JmH-t6Fp_r1iHyjIvHLw-66" value="" style="endArrow=classic;html=1;rounded=0;entryX=0;entryY=0.5;entryDx=0;entryDy=0;" edge="1" parent="1" target="JmH-t6Fp_r1iHyjIvHLw-40">
          <mxGeometry width="50" height="50" relative="1" as="geometry">
            <mxPoint x="640" y="503" as="sourcePoint" />
            <mxPoint x="700" y="520" as="targetPoint" />
          </mxGeometry>
        </mxCell>
        <mxCell id="JmH-t6Fp_r1iHyjIvHLw-67" value="" style="endArrow=classic;html=1;rounded=0;entryX=0;entryY=0.5;entryDx=0;entryDy=0;" edge="1" parent="1" target="JmH-t6Fp_r1iHyjIvHLw-47">
          <mxGeometry width="50" height="50" relative="1" as="geometry">
            <mxPoint x="640" y="550" as="sourcePoint" />
            <mxPoint x="680" y="560" as="targetPoint" />
          </mxGeometry>
        </mxCell>
        <mxCell id="JmH-t6Fp_r1iHyjIvHLw-70" value="" style="endArrow=classic;html=1;rounded=0;entryX=0.5;entryY=0;entryDx=0;entryDy=0;exitX=0.5;exitY=1;exitDx=0;exitDy=0;" edge="1" parent="1" source="JmH-t6Fp_r1iHyjIvHLw-47" target="JmH-t6Fp_r1iHyjIvHLw-56">
          <mxGeometry width="50" height="50" relative="1" as="geometry">
            <mxPoint x="660" y="640" as="sourcePoint" />
            <mxPoint x="710" y="590" as="targetPoint" />
          </mxGeometry>
        </mxCell>
        <mxCell id="JmH-t6Fp_r1iHyjIvHLw-71" value="&lt;font style=&quot;font-size: 18px;&quot;&gt;&lt;b&gt;object-timetable.rkt&lt;/b&gt;&lt;/font&gt;" style="rounded=0;whiteSpace=wrap;html=1;" vertex="1" parent="1">
          <mxGeometry x="150" y="443" width="190" height="40" as="geometry" />
        </mxCell>
        <mxCell id="JmH-t6Fp_r1iHyjIvHLw-72" value="&lt;font style=&quot;font-size: 18px;&quot;&gt;&lt;b&gt;adt-stop.rkt&lt;/b&gt;&lt;/font&gt;" style="rounded=0;whiteSpace=wrap;html=1;" vertex="1" parent="1">
          <mxGeometry x="270" y="700" width="120" height="40" as="geometry" />
        </mxCell>
        <mxCell id="JmH-t6Fp_r1iHyjIvHLw-73" value="" style="endArrow=classic;html=1;rounded=0;exitX=0.5;exitY=1;exitDx=0;exitDy=0;entryX=0.5;entryY=0;entryDx=0;entryDy=0;" edge="1" parent="1" source="JmH-t6Fp_r1iHyjIvHLw-36" target="JmH-t6Fp_r1iHyjIvHLw-72">
          <mxGeometry width="50" height="50" relative="1" as="geometry">
            <mxPoint x="250" y="680" as="sourcePoint" />
            <mxPoint x="300" y="630" as="targetPoint" />
          </mxGeometry>
        </mxCell>
        <mxCell id="JmH-t6Fp_r1iHyjIvHLw-74" value="" style="endArrow=classic;html=1;rounded=0;exitX=0.5;exitY=1;exitDx=0;exitDy=0;entryX=0.5;entryY=0;entryDx=0;entryDy=0;" edge="1" parent="1" source="JmH-t6Fp_r1iHyjIvHLw-37" target="JmH-t6Fp_r1iHyjIvHLw-36">
          <mxGeometry width="50" height="50" relative="1" as="geometry">
            <mxPoint x="230" y="610" as="sourcePoint" />
            <mxPoint x="280" y="560" as="targetPoint" />
          </mxGeometry>
        </mxCell>
        <mxCell id="JmH-t6Fp_r1iHyjIvHLw-75" value="" style="endArrow=classic;html=1;rounded=0;exitX=0.5;exitY=1;exitDx=0;exitDy=0;entryX=0.5;entryY=0;entryDx=0;entryDy=0;" edge="1" parent="1" source="JmH-t6Fp_r1iHyjIvHLw-37" target="JmH-t6Fp_r1iHyjIvHLw-34">
          <mxGeometry width="50" height="50" relative="1" as="geometry">
            <mxPoint x="190" y="640" as="sourcePoint" />
            <mxPoint x="240" y="590" as="targetPoint" />
          </mxGeometry>
        </mxCell>
        <mxCell id="JmH-t6Fp_r1iHyjIvHLw-76" value="" style="endArrow=classic;html=1;rounded=0;exitX=0.5;exitY=1;exitDx=0;exitDy=0;entryX=0.5;entryY=0;entryDx=0;entryDy=0;" edge="1" parent="1" source="JmH-t6Fp_r1iHyjIvHLw-71" target="JmH-t6Fp_r1iHyjIvHLw-37">
          <mxGeometry width="50" height="50" relative="1" as="geometry">
            <mxPoint x="240" y="630" as="sourcePoint" />
            <mxPoint x="290" y="580" as="targetPoint" />
          </mxGeometry>
        </mxCell>
        <mxCell id="JmH-t6Fp_r1iHyjIvHLw-78" value="" style="endArrow=classic;html=1;rounded=0;exitX=1;exitY=0.5;exitDx=0;exitDy=0;entryX=1;entryY=0.5;entryDx=0;entryDy=0;" edge="1" parent="1" source="JmH-t6Fp_r1iHyjIvHLw-43" target="JmH-t6Fp_r1iHyjIvHLw-47">
          <mxGeometry width="50" height="50" relative="1" as="geometry">
            <mxPoint x="835" y="370" as="sourcePoint" />
            <mxPoint x="997.5" y="615" as="targetPoint" />
            <Array as="points">
              <mxPoint x="880" y="345" />
              <mxPoint x="880" y="550" />
            </Array>
          </mxGeometry>
        </mxCell>
        <mxCell id="JmH-t6Fp_r1iHyjIvHLw-79" value="" style="endArrow=classic;html=1;rounded=0;entryX=1;entryY=0.5;entryDx=0;entryDy=0;" edge="1" parent="1" target="JmH-t6Fp_r1iHyjIvHLw-40">
          <mxGeometry width="50" height="50" relative="1" as="geometry">
            <mxPoint x="880" y="503" as="sourcePoint" />
            <mxPoint x="880" y="470" as="targetPoint" />
          </mxGeometry>
        </mxCell>
        <mxCell id="JmH-t6Fp_r1iHyjIvHLw-80" value="" style="endArrow=none;html=1;rounded=0;entryX=1;entryY=0.5;entryDx=0;entryDy=0;" edge="1" parent="1" target="JmH-t6Fp_r1iHyjIvHLw-39">
          <mxGeometry width="50" height="50" relative="1" as="geometry">
            <mxPoint x="880" y="440" as="sourcePoint" />
            <mxPoint x="840" y="410" as="targetPoint" />
          </mxGeometry>
        </mxCell>
        <mxCell id="JmH-t6Fp_r1iHyjIvHLw-81" value="" style="endArrow=none;html=1;rounded=0;entryX=1;entryY=0.5;entryDx=0;entryDy=0;" edge="1" parent="1" target="JmH-t6Fp_r1iHyjIvHLw-42">
          <mxGeometry width="50" height="50" relative="1" as="geometry">
            <mxPoint x="880" y="393" as="sourcePoint" />
            <mxPoint x="680" y="480" as="targetPoint" />
          </mxGeometry>
        </mxCell>
        <mxCell id="JmH-t6Fp_r1iHyjIvHLw-86" value="" style="endArrow=classic;startArrow=classic;html=1;rounded=0;exitX=0;exitY=0.5;exitDx=0;exitDy=0;entryX=0;entryY=0.5;entryDx=0;entryDy=0;" edge="1" parent="1" source="JmH-t6Fp_r1iHyjIvHLw-25" target="JmH-t6Fp_r1iHyjIvHLw-33">
          <mxGeometry width="50" height="50" relative="1" as="geometry">
            <mxPoint x="590" y="300" as="sourcePoint" />
            <mxPoint x="670" y="110" as="targetPoint" />
            <Array as="points">
              <mxPoint x="590" y="110" />
            </Array>
          </mxGeometry>
        </mxCell>
        <mxCell id="JmH-t6Fp_r1iHyjIvHLw-89" value="&lt;font style=&quot;font-size: 36px;&quot;&gt;&lt;b&gt;?&lt;/b&gt;&lt;/font&gt;" style="rounded=1;whiteSpace=wrap;html=1;" vertex="1" parent="1">
          <mxGeometry x="1080" y="280" width="80" height="80" as="geometry" />
        </mxCell>
        <mxCell id="JmH-t6Fp_r1iHyjIvHLw-6" value="&lt;b&gt;&lt;font style=&quot;font-size: 18px;&quot;&gt;Z21&lt;/font&gt;&lt;/b&gt;" style="text;html=1;strokeColor=none;fillColor=none;align=center;verticalAlign=middle;whiteSpace=wrap;rounded=0;" vertex="1" parent="1">
          <mxGeometry x="1090" y="250" width="60" height="30" as="geometry" />
        </mxCell>
        <mxCell id="JmH-t6Fp_r1iHyjIvHLw-7" value="&lt;b&gt;&lt;font style=&quot;font-size: 18px;&quot;&gt;Simulator&lt;/font&gt;&lt;/b&gt;" style="text;html=1;strokeColor=none;fillColor=none;align=center;verticalAlign=middle;whiteSpace=wrap;rounded=0;" vertex="1" parent="1">
          <mxGeometry x="1090" y="450" width="60" height="30" as="geometry" />
        </mxCell>
        <mxCell id="JmH-t6Fp_r1iHyjIvHLw-90" value="&lt;font style=&quot;font-size: 36px;&quot;&gt;&lt;b&gt;?&lt;/b&gt;&lt;/font&gt;" style="rounded=1;whiteSpace=wrap;html=1;" vertex="1" parent="1">
          <mxGeometry x="1080" y="480" width="80" height="80" as="geometry" />
        </mxCell>
        <mxCell id="JmH-t6Fp_r1iHyjIvHLw-91" value="" style="endArrow=classic;startArrow=classic;html=1;rounded=0;exitX=0;exitY=0.5;exitDx=0;exitDy=0;entryX=0.5;entryY=1;entryDx=0;entryDy=0;" edge="1" parent="1" source="JmH-t6Fp_r1iHyjIvHLw-37" target="JmH-t6Fp_r1iHyjIvHLw-31">
          <mxGeometry width="50" height="50" relative="1" as="geometry">
            <mxPoint x="130" y="250" as="sourcePoint" />
            <mxPoint x="180" y="200" as="targetPoint" />
            <Array as="points">
              <mxPoint x="120" y="550" />
              <mxPoint x="120" y="200" />
              <mxPoint x="240" y="200" />
            </Array>
          </mxGeometry>
        </mxCell>
        <mxCell id="JmH-t6Fp_r1iHyjIvHLw-92" value="" style="endArrow=classic;html=1;rounded=0;entryX=0;entryY=0.5;entryDx=0;entryDy=0;" edge="1" parent="1" target="JmH-t6Fp_r1iHyjIvHLw-71">
          <mxGeometry width="50" height="50" relative="1" as="geometry">
            <mxPoint x="120" y="463" as="sourcePoint" />
            <mxPoint x="270" y="330" as="targetPoint" />
          </mxGeometry>
        </mxCell>
        <mxCell id="JmH-t6Fp_r1iHyjIvHLw-93" value="" style="endArrow=classic;html=1;rounded=0;exitX=1;exitY=0.5;exitDx=0;exitDy=0;entryX=0;entryY=0.5;entryDx=0;entryDy=0;" edge="1" parent="1" source="JmH-t6Fp_r1iHyjIvHLw-72" target="JmH-t6Fp_r1iHyjIvHLw-38">
          <mxGeometry width="50" height="50" relative="1" as="geometry">
            <mxPoint x="480" y="750" as="sourcePoint" />
            <mxPoint x="530" y="700" as="targetPoint" />
          </mxGeometry>
        </mxCell>
      </root>
    </mxGraphModel>
  </diagram>
</mxfile>
